<svg xmlns="http://www.w3.org/2000/svg" height="24" viewBox="0 -960 960 960" width="24"><path fill="#6e6e6e" d="M452.424-294.039h55.96v-158.385h157.577v-55.96H508.384v-157.577h-55.96v157.577H294.039v55.96h158.385v158.385ZM215.448-147.271q-28.346 0-48.262-19.915-19.915-19.916-19.915-48.262v-529.104q0-28.346 19.915-48.262 19.916-19.915 48.262-19.915h529.104q28.346 0 48.262 19.915 19.915 19.916 19.915 48.262v529.104q0 28.346-19.915 48.262-19.916 19.915-48.262 19.915H215.448Zm.091-55.96h528.922q4.615 0 8.462-3.846 3.846-3.847 3.846-8.462v-528.922q0-4.615-3.846-8.462-3.847-3.846-8.462-3.846H215.539q-4.615 0-8.462 3.846-3.846 3.847-3.846 8.462v528.922q0 4.615 3.846 8.462 3.847 3.846 8.462 3.846Zm-12.308-553.538v553.538-553.538Z"/></svg>